Coordinates
version=1
nRows=8
nColumns=36
inDegrees=yes

Units are S.I. units (second, meters, Newtons, ...)
If the header above contains a line with 'inDegrees', this indicates whether rotational values are in degrees (yes) or radians (no).

endheader
time	pelvis_tilt	pelvis_list	pelvis_rotation	pelvis_tx	pelvis_ty	pelvis_tz	hip_flexion_r	hip_adduction_r	hip_rotation_r	knee_angle_r	knee_angle_r_beta	ankle_angle_r	subtalar_angle_r	mtp_angle_r	hip_flexion_l	hip_adduction_l	hip_rotation_l	knee_angle_l	knee_angle_l_beta	ankle_angle_l	subtalar_angle_l	mtp_angle_l	lumbar_extension	lumbar_bending	lumbar_rotation	arm_flex_r	arm_add_r	arm_rot_r	elbow_flex_r	pro_sup_r	arm_flex_l	arm_add_l	arm_rot_l	elbow_flex_l	pro_sup_l
      2.40416670	    -11.46918062	      1.42830373	      1.38849132	      0.18170102	      1.21169475	     -0.10763353	     12.55834197	     -3.41972494	    -14.71127163	      0.61323531	      0.01070298	    -36.64817762	      9.44447665	     -7.49999987	     17.29755458	      0.41002668	    -10.41206863	      3.75987455	      0.06562219	    -37.20400026	      9.84607383	     -7.49999987	      0.52469318	     -1.25447831	      0.67701128	    133.36832907	    -32.93697690	     61.91513980	     51.98244805	     63.17253547	    137.53071292	    -37.07058627	     72.35704986	     66.53408287	     64.22898877
      2.40833330	    -11.44780604	      1.44459966	      1.45102145	      0.17763657	      1.21607220	     -0.11171840	     12.76797917	     -3.49159794	    -14.96202034	      0.70178817	      0.01224851	    -36.57348804	      9.53789153	     -7.49999987	     17.49466178	      0.45063705	    -11.02989582	      3.76371028	      0.06568914	    -37.09910456	      9.45239061	     -7.49999987	      0.21150203	     -1.09353402	      0.69691335	    133.55078918	    -33.22133513	     61.72426238	     52.06582300	     63.18816256	    137.48828872	    -37.23639791	     72.30695579	     66.44665721	     64.24526888
      2.41250000	    -11.53675375	      1.44848542	      1.43458044	      0.17750556	      1.21882628	     -0.11210730	     12.97629223	     -3.48867302	    -15.43229680	      0.64854111	      0.01131918	    -36.53540111	      9.87563647	     -7.49999987	     17.72791523	      0.44270375	    -11.24282904	      3.63709542	      0.06347929	    -37.45651264	      8.91805330	     -7.49999987	     -0.01233633	     -1.00290604	      1.25456504	    133.71698635	    -34.18557344	     61.61269136	     53.04590334	     62.83956663	    136.83300403	    -36.66425172	     71.71954727	     65.75819841	     63.35942572
      2.41666670	    -11.32052696	      1.30905939	      1.21880912	      0.17790932	      1.22510965	     -0.11215643	     12.89118730	     -3.23429596	    -15.84900287	      0.79951424	      0.01395416	    -36.81055940	      9.87252429	     -7.49999987	     17.63577271	      0.21394697	    -11.32890721	      3.82448273	      0.06674982	    -37.48145714	      9.25199819	     -7.49999987	     -0.37752758	     -0.71187379	      1.41759976	    133.39009808	    -34.53807092	     61.61305540	     53.25469098	     62.90752305	    136.31520980	    -36.98705496	     71.86546011	     65.97387784	     63.43746093
      2.42083330	    -11.18295118	      1.24092283	      1.16965740	      0.17786397	      1.22479539	     -0.11235088	     12.91531714	     -3.17879752	    -16.29482637	      0.97065205	      0.01694107	    -37.31359926	      9.43433958	     -7.49999987	     17.62130477	      0.12313294	    -11.72639484	      4.02454952	      0.07024164	    -37.19155792	      9.14436309	     -7.49999987	     -0.55901939	     -0.62057261	      1.62037108	    132.57249103	    -35.36059879	     60.52250792	     54.68763075	     62.55233857	    135.17511532	    -37.03243939	     70.76077552	     66.58250264	     62.96310653
      2.42500000	    -11.05726153	      1.30397645	      1.11405266	      0.17795232	      1.22816138	     -0.11235870	     12.85533316	     -3.32791462	    -16.26836158	      1.12662431	      0.01966330	    -37.44917472	      9.94127203	     -7.49999987	     17.51830118	      0.15524946	    -12.07394544	      4.04633274	      0.07062183	    -37.42128071	      9.03714939	     -7.49999987	     -0.67145660	     -0.57719968	      1.64049101	    132.22324332	    -35.36703441	     60.42381180	     54.69462324	     63.47318908	    134.29660845	    -37.47054137	     70.27793785	     66.89633238	     63.56525027
      2.42916670	    -11.05845954	      1.38392224	      1.20464240	      0.17771789	      1.22511873	     -0.11254811	     12.92772964	     -3.48027865	    -16.46390188	      1.24927984	      0.02180405	    -37.58595781	      9.92100468	     -7.49999987	     17.56785440	      0.24410193	    -12.49099912	      4.15450812	      0.07250985	    -37.69110241	      8.85142539	     -7.49999987	     -0.52117623	     -0.70833126	      1.40744109	    131.51808641	    -35.31729208	     59.79891464	     54.60417728	     63.68758046	    133.74447305	    -37.54288740	     70.44008138	     66.44604779	     63.80008740
      2.43333330	    -11.73256524	      1.46043085	      1.27444003	      0.17826983	      1.22516901	     -0.11216133	     13.71135808	     -3.63340856	    -16.47783590	      1.37018605	      0.02391426	    -37.94090777	      9.83345672	     -7.49999987	     18.29607690	      0.28918572	    -13.09618413	      4.22261134	      0.07369847	    -38.24382223	      8.77246771	     -7.49999987	      0.36343610	     -0.83455495	      1.57401235	    130.85169048	    -35.93754654	     59.12104931	     55.77218634	     62.98241973	    132.60709596	    -37.86675982	     69.97199852	     66.97513040	     63.12090725
